<svg xmlns="http://www.w3.org/2000/svg" width="16" height="16" viewBox="0 0 16 16" fill="none" class="link-icon_14609"><path d="M7.16681 3.09336L4.21348 1.63336C2.62014 0.853363 1.31348 1.6467 1.31348 3.39336V13.2867C1.31348 14.0467 1.94681 14.6667 2.72014 14.6667H7.66681C8.03348 14.6667 8.33348 14.3667 8.33348 14V4.94003C8.33348 4.24003 7.80681 3.4067 7.16681 3.09336ZM5.98014 9.1667H3.66681C3.39348 9.1667 3.16681 8.94003 3.16681 8.6667C3.16681 8.39336 3.39348 8.1667 3.66681 8.1667H5.98014C6.25348 8.1667 6.48014 8.39336 6.48014 8.6667C6.48014 8.94003 6.26014 9.1667 5.98014 9.1667ZM5.98014 6.50003H3.66681C3.39348 6.50003 3.16681 6.27336 3.16681 6.00003C3.16681 5.7267 3.39348 5.50003 3.66681 5.50003H5.98014C6.25348 5.50003 6.48014 5.7267 6.48014 6.00003C6.48014 6.27336 6.26014 6.50003 5.98014 6.50003Z" fill="url(#paint0_linear_136_1073)"></path><path d="M14.6663 12.0267V13C14.6663 13.92 13.9197 14.6667 12.9997 14.6667H9.97967C9.61967 14.6667 9.33301 14.38 9.33301 14.02V12.58C10.0463 12.6667 10.7997 12.46 11.3397 12.0267C11.793 12.3933 12.373 12.6133 13.0063 12.6133C13.6263 12.6133 14.2063 12.3933 14.6663 12.0267Z" fill="url(#paint1_linear_136_1073)"></path><path d="M14.6663 10.0333V10.04C14.613 10.9133 13.8997 11.6133 13.0063 11.6133C12.0797 11.6133 11.3397 10.86 11.3397 9.94666C11.3397 10.9667 10.3997 11.7867 9.33301 11.58V7.99999C9.33301 7.57333 9.72634 7.25333 10.1463 7.34666L11.3397 7.61333L11.6597 7.68666L13.0197 7.99333C13.3463 8.05999 13.6463 8.17333 13.9063 8.33999C13.9063 8.34666 13.913 8.34666 13.913 8.34666C13.9797 8.39333 14.0463 8.44666 14.1063 8.50666C14.413 8.81333 14.613 9.25999 14.6597 9.91333C14.6597 9.95333 14.6663 9.99333 14.6663 10.0333Z" fill="url(#paint2_linear_136_1073)"></path><defs><linearGradient id="paint0_linear_136_1073" x1="1.92955" y1="7.99993" x2="8.33348" y2="7.99993" gradientUnits="userSpaceOnUse"><stop stop-color="#030021"></stop><stop offset="1" stop-color="#3D195B"></stop></linearGradient><linearGradient id="paint1_linear_136_1073" x1="9.80106" y1="13.3467" x2="14.6663" y2="13.3467" gradientUnits="userSpaceOnUse"><stop stop-color="#030021"></stop><stop offset="1" stop-color="#3D195B"></stop></linearGradient><linearGradient id="paint2_linear_136_1073" x1="9.80106" y1="9.47186" x2="14.6663" y2="9.47186" gradientUnits="userSpaceOnUse"><stop stop-color="#030021"></stop><stop offset="1" stop-color="#3D195B"></stop></linearGradient></defs></svg>