<svg xmlns="http://www.w3.org/2000/svg" width="16" height="16" viewBox="0 0 16 16" fill="none" class="link-icon_14609"><g><path d="M3.42871 7.99997V4.99426C3.43764 4.40344 3.56306 3.82018 3.79778 3.27792C4.03251 2.73565 4.37193 2.24503 4.79659 1.83417C5.22126 1.4233 5.72282 1.10027 6.27255 0.883584C6.82227 0.666896 7.40935 0.560808 8.00014 0.5714V0.5714C8.59093 0.560808 9.17801 0.666896 9.72773 0.883584C10.2775 1.10027 10.779 1.4233 11.2037 1.83417C11.6283 2.24503 11.9678 2.73565 12.2025 3.27792C12.4372 3.82018 12.5626 4.40344 12.5716 4.99426V7.99997" stroke="url(#paint0_linear_136_1061)" stroke-linecap="round" stroke-linejoin="round"></path><path d="M1.71415 6.28571H2.857C3.00856 6.28571 3.1539 6.34591 3.26106 6.45307C3.36823 6.56024 3.42843 6.70558 3.42843 6.85713V10.2857C3.42843 10.4373 3.36823 10.5826 3.26106 10.6898C3.1539 10.7969 3.00856 10.8571 2.857 10.8571H1.71415C1.41104 10.8571 1.12035 10.7367 0.906024 10.5224C0.691697 10.3081 0.571289 10.0174 0.571289 9.71428V7.42856C0.571289 7.12546 0.691697 6.83477 0.906024 6.62044C1.12035 6.40611 1.41104 6.28571 1.71415 6.28571Z" fill="#070225" stroke="#000001" stroke-linecap="round" stroke-linejoin="round"></path><path d="M14.2859 10.8571H13.143C12.9914 10.8571 12.8461 10.7969 12.7389 10.6897C12.6318 10.5826 12.5716 10.4372 12.5716 10.2857V6.85712C12.5716 6.70556 12.6318 6.56022 12.7389 6.45305C12.8461 6.34589 12.9914 6.28569 13.143 6.28569H14.2859C14.589 6.28569 14.8796 6.4061 15.094 6.62042C15.3083 6.83475 15.4287 7.12544 15.4287 7.42854V9.71426C15.4287 10.0174 15.3083 10.3081 15.094 10.5224C14.8796 10.7367 14.589 10.8571 14.2859 10.8571Z" fill="#381756" stroke="#351553" stroke-linecap="round" stroke-linejoin="round"></path><path d="M10.2852 14C10.8914 14 11.4727 13.7591 11.9014 13.3305C12.3301 12.9018 12.5709 12.3205 12.5709 11.7143V9.14282" stroke="#381756" stroke-linecap="round" stroke-linejoin="round"></path><path d="M10 14C10 14.2652 9.8683 14.5196 9.63388 14.7071C9.39946 14.8946 9.08152 15 8.75 15H7.25C6.91848 15 6.60054 14.8946 6.36612 14.7071C6.1317 14.5196 6 14.2652 6 14C6 13.7348 6.1317 13.4804 6.36612 13.2929C6.60054 13.1054 6.91848 13 7.25 13H8.75C9.08152 13 9.39946 13.1054 9.63388 13.2929C9.8683 13.4804 10 13.7348 10 14Z" stroke="url(#paint1_linear_136_1061)" stroke-linecap="round" stroke-linejoin="round"></path></g><defs><linearGradient id="paint0_linear_136_1061" x1="3" y1="5.58546" x2="13" y2="5.58546" gradientUnits="userSpaceOnUse"><stop stop-color="#030121"></stop><stop offset="1" stop-color="#391757"></stop></linearGradient><linearGradient id="paint1_linear_136_1061" x1="5.81244" y1="14.35" x2="10.1874" y2="14.35" gradientUnits="userSpaceOnUse"><stop stop-color="#030121"></stop><stop offset="1" stop-color="#391757"></stop></linearGradient><clipPath id="clip0_136_1061"><rect width="16" height="16" fill="white"></rect></clipPath></defs></svg>